<svg width="150" height="150" viewBox="0 0 150 150" fill="none" xmlns="http://www.w3.org/2000/svg">
<path d="M105.22 72.8901H69.52V128.03H105.22V72.8901Z" fill="#CDD9E2" stroke="#CDD9E2" stroke-width="0.75" stroke-linecap="round" stroke-linejoin="round"/>
<path d="M13.1799 93.26H9.1499V100.65H13.1799V93.26Z" fill="#CDD9E2" stroke="#CDD9E2" stroke-width="0.5" stroke-linecap="round" stroke-linejoin="round"/>
<path d="M23.0598 93.26H19.0298V100.65H23.0598V93.26Z" fill="#CDD9E2" stroke="#CDD9E2" stroke-width="0.5" stroke-linecap="round" stroke-linejoin="round"/>
<path d="M13.1799 106.5H9.1499V113.89H13.1799V106.5Z" fill="#CDD9E2" stroke="#CDD9E2" stroke-width="0.5" stroke-linecap="round" stroke-linejoin="round"/>
<path d="M127.37 106.5H123.34V113.89H127.37V106.5Z" fill="#B4C5D0" stroke="#B4C5D0" stroke-width="0.5" stroke-linecap="round" stroke-linejoin="round"/>
<path d="M127.37 93.26H123.34V100.65H127.37V93.26Z" fill="#B4C5D0" stroke="#B4C5D0" stroke-width="0.5" stroke-linecap="round" stroke-linejoin="round"/>
<path d="M57.5698 56.9702H50.0698V61.1902H57.5698V56.9702Z" fill="#B4C5D0" stroke="#B4C5D0" stroke-width="0.5" stroke-miterlimit="10" stroke-linecap="round"/>
<path d="M60.0799 29.1502H2.1499L19.2999 21.7002L60.0799 29.1502Z" fill="#B4C5D0" stroke="#B4C5D0" stroke-width="0.5" stroke-miterlimit="10" stroke-linecap="round"/>
<path d="M104.67 51.02V72.89" stroke="#1F323D" stroke-width="0.75" stroke-miterlimit="10"/>
<path d="M88.0898 51.02V72.89" stroke="#1F323D" stroke-width="0.75" stroke-miterlimit="10"/>
<path d="M70.5598 67.6902H105.04" stroke="#1F323D" stroke-width="0.75" stroke-miterlimit="10"/>
<path d="M70.5598 58.77H105.04" stroke="#1F323D" stroke-width="0.75" stroke-miterlimit="10"/>
<path d="M70.24 51.02V72.89" stroke="#1F323D" stroke-width="0.75" stroke-miterlimit="10"/>
<path d="M117.25 129.21V85.6201H147.5V129.21" stroke="#1F323D" stroke-width="0.75" stroke-miterlimit="10"/>
<path d="M2.5 127.91V85.6201H74.72V116.19" stroke="#1F323D" stroke-width="0.75" stroke-miterlimit="10"/>
<path d="M53.1499 26.23V57.51" stroke="#1F323D" stroke-width="0.75" stroke-linecap="round" stroke-linejoin="round"/>
<path d="M24.6499 84.2701V20.8501" stroke="#1F323D" stroke-width="0.75" stroke-linecap="round" stroke-linejoin="round"/>
<path d="M16.49 84.2701V21.1101" stroke="#1F323D" stroke-width="0.75" stroke-linecap="round" stroke-linejoin="round"/>
</svg>
