<svg width="150" height="150" viewBox="0 0 150 150" fill="none" xmlns="http://www.w3.org/2000/svg">
<path d="M112.29 43.78V128.03H79.8201V43.78L96.0601 20.79L112.29 43.78Z" fill="#CDD9E2" stroke="#CDD9E2" stroke-width="0.75" stroke-linecap="round" stroke-linejoin="round"/>
<path d="M50.1101 62.15C53.0151 62.15 55.3701 59.795 55.3701 56.89C55.3701 53.985 53.0151 51.63 50.1101 51.63C47.2051 51.63 44.8501 53.985 44.8501 56.89C44.8501 59.795 47.2051 62.15 50.1101 62.15Z" fill="#CDD9E2" stroke="#CDD9E2" stroke-width="0.5" stroke-miterlimit="10" stroke-linecap="round"/>
<path d="M40.1101 98.79H36.5701V105.28H40.1101V98.79Z" fill="#CDD9E2" stroke="#CDD9E2" stroke-width="0.5" stroke-linecap="round" stroke-linejoin="round"/>
<path d="M48.78 98.79H45.24V105.28H48.78V98.79Z" fill="#CDD9E2" stroke="#CDD9E2" stroke-width="0.5" stroke-linecap="round" stroke-linejoin="round"/>
<path d="M40.1101 110.41H36.5701V116.9H40.1101V110.41Z" fill="#CDD9E2" stroke="#CDD9E2" stroke-width="0.5" stroke-linecap="round" stroke-linejoin="round"/>
<path d="M29.06 77.86H2.5V117.22H29.06V77.86Z" fill="#B4C5D0" stroke="#B4C5D0" stroke-width="0.75" stroke-linecap="round" stroke-linejoin="round"/>
<path d="M129.83 78.54H126.29V85.03H129.83V78.54Z" fill="#B4C5D0" stroke="#B4C5D0" stroke-width="0.5" stroke-linecap="round" stroke-linejoin="round"/>
<path d="M129.83 66.91H126.29V73.4H129.83V66.91Z" fill="#B4C5D0" stroke="#B4C5D0" stroke-width="0.5" stroke-linecap="round" stroke-linejoin="round"/>
<path d="M129.83 90.16H126.29V96.65H129.83V90.16Z" fill="#B4C5D0" stroke="#B4C5D0" stroke-width="0.5" stroke-linecap="round" stroke-linejoin="round"/>
<path d="M50.9199 47.3101V39.1901" stroke="#1F323D" stroke-width="0.74" stroke-linecap="round" stroke-linejoin="round"/>
<path d="M49.3 66.48V74.6" stroke="#1F323D" stroke-width="0.74" stroke-linecap="round" stroke-linejoin="round"/>
<path d="M41.25 53.16L33.52 50.65" stroke="#1F323D" stroke-width="0.74" stroke-linecap="round" stroke-linejoin="round"/>
<path d="M58.98 60.63L66.7 63.14" stroke="#1F323D" stroke-width="0.74" stroke-linecap="round" stroke-linejoin="round"/>
<path d="M43.82 64.17L39.05 70.74" stroke="#1F323D" stroke-width="0.74" stroke-linecap="round" stroke-linejoin="round"/>
<path d="M56.3999 49.62L61.1799 43.04" stroke="#1F323D" stroke-width="0.74" stroke-linecap="round" stroke-linejoin="round"/>
<path d="M45.1301 48.6601L40.3601 42.0901" stroke="#1F323D" stroke-width="0.74" stroke-linecap="round" stroke-linejoin="round"/>
<path d="M55.0901 65.12L59.8601 71.7" stroke="#1F323D" stroke-width="0.74" stroke-linecap="round" stroke-linejoin="round"/>
<path d="M40.74 59.0801L33.02 61.5901" stroke="#1F323D" stroke-width="0.74" stroke-linecap="round" stroke-linejoin="round"/>
<path d="M59.48 54.7001L67.2 52.1901" stroke="#1F323D" stroke-width="0.74" stroke-linecap="round" stroke-linejoin="round"/>
<path d="M88.5101 47.5601H85.5601V54.0501H88.5101V47.5601Z" stroke="#1F323D" stroke-width="0.75" stroke-miterlimit="10"/>
<path d="M85.57 67.4501H88.52V60.9601H85.57V67.4501Z" stroke="#1F323D" stroke-width="0.75" stroke-miterlimit="10"/>
<path d="M88.5101 74.3501H85.5601V80.8401H88.5101V74.3501Z" stroke="#1F323D" stroke-width="0.75" stroke-miterlimit="10"/>
<path d="M120.94 129.21V60.2101H147.5V129.21" stroke="#1F323D" stroke-width="0.75" stroke-miterlimit="10"/>
<path d="M24.73 129.21V92.0801H83.75V123.31" stroke="#1F323D" stroke-width="0.75" stroke-miterlimit="10"/>
</svg>
